PathFileType	4	(X/Y/Z)	 s08c0401.trc
DataRate	CameraRate	NumFrames	NumMarkers	Units	OrigDataRate	OrigDataStartFrame	OrigNumFrames
200	200	4	50	mm	200	751	2000
Frame#	Time	racr			lacr			c7			jug			rlel			rdr			llel			ldr			s2			lic			ric			lasi			rasi			rpsi			lpsi			rgt			lgt			rth1			rth2			rth3			rth4			rlfc			rmfc			rsh1			rsh2			rsh3			rsh4			rlmal			rmmal			rcal			rtoe			rmt5			lth1			lth2			lth4			lth3			llfc			lmfc			llmal			lmmal			lcal			lmt5			lsh1			lsh2			lsh3			lsh4			ltoe			SBIKE			LBIKE			RBIKE			
		X1	Y1	Z1	X2	Y2	Z2	X3	Y3	Z3	X4	Y4	Z4	X5	Y5	Z5	X6	Y6	Z6	X7	Y7	Z7	X8	Y8	Z8	X9	Y9	Z9	X10	Y10	Z10	X11	Y11	Z11	X12	Y12	Z12	X13	Y13	Z13	X14	Y14	Z14	X15	Y15	Z15	X16	Y16	Z16	X17	Y17	Z17	X18	Y18	Z18	X19	Y19	Z19	X20	Y20	Z20	X21	Y21	Z21	X22	Y22	Z22	X23	Y23	Z23	X24	Y24	Z24	X25	Y25	Z25	X26	Y26	Z26	X27	Y27	Z27	X28	Y28	Z28	X29	Y29	Z29	X30	Y30	Z30	X31	Y31	Z31	X32	Y32	Z32	X33	Y33	Z33	X34	Y34	Z34	X35	Y35	Z35	X36	Y36	Z36	X37	Y37	Z37	X38	Y38	Z38	X39	Y39	Z39	X40	Y40	Z40	X41	Y41	Z41	X42	Y42	Z42	X43	Y43	Z43	X44	Y44	Z44	X45	Y45	Z45	X46	Y46	Z46	X47	Y47	Z47	X48	Y48	Z48	X49	Y49	Z49	X50	Y50	Z50	
751	3.7550	817.417816	1413.968751	-119.269745	859.491261	1326.385057	-436.197375	812.461161	1436.974114	-295.022053	573.847660	1244.614995	16.827070	710.061809	1200.283241	39.092235	786.300950	932.810140	-19.562478	646.336630	1123.027716	-533.558941	777.712966	938.452178	-418.810349	246.695499	1252.844027	-194.161682	377.346468	1222.959311	-369.095580	437.255435	1247.020914	-62.824163	404.535471	1187.201722	-332.505646	441.763614	1175.329680	-98.963144	292.989372	1290.174194	-150.482399	275.409721	1292.212123	-246.309300	351.473155	1132.416317	-13.761134	310.492110	1131.606872	-391.779050	427.349700	975.398007	-19.052034	478.561396	903.439841	-29.430277	487.263311	817.515060	-36.484220	510.109362	916.802815	-41.369393	517.111597	702.695330	-53.667339	490.360874	704.550378	-163.385286	403.114550	637.097868	-20.901098	351.695441	566.410093	-40.849267	273.027881	530.461932	-44.311794	371.848085	548.016424	-72.955199	170.443380	464.171941	-49.621237	197.366080	461.824544	-138.103480	119.593957	519.542862	-100.812033	207.872190	235.254209	-100.234896	148.900417	308.180896	-34.052212	391.035693	1022.701181	-407.859462	462.478301	972.798164	-413.136676	490.700746	995.393113	-405.852277	498.962395	891.972544	-418.133799	563.444491	774.867128	-402.295090	573.879666	746.894806	-294.782971	373.086509	401.398100	-390.244454	405.844590	414.181190	-304.848258	298.979665	393.757514	-351.813208	486.115082	289.169539	-414.197633	507.798036	659.184453	-422.383694	488.953625	576.867926	-404.594399	431.106252	510.550777	-401.525227	512.584593	569.601131	-373.258854	572.859707	300.304915	-346.531093	-133.446007	945.733906	-222.830076	26.750996	84.269376	-426.414403	18.507531	80.404841	-28.241367	
752	3.7600	817.480061	1415.365376	-118.084941	860.076653	1327.824618	-434.878594	812.006009	1437.931927	-293.370622	577.179531	1243.847893	17.002115	710.223212	1200.827935	40.875530	785.898989	932.937035	-19.630605	647.074324	1124.610423	-533.430696	777.919613	938.447765	-418.719940	246.438690	1249.822423	-194.487412	378.027796	1220.020037	-369.900102	437.154039	1245.297181	-63.236409	404.808487	1183.732167	-333.348720	441.725809	1174.098932	-99.559824	292.251113	1286.886026	-151.690427	274.199611	1288.691864	-245.894140	352.137705	1130.388626	-13.610125	310.043886	1126.265493	-391.396120	427.734680	973.383038	-17.688483	480.338284	902.409027	-28.968211	490.377201	816.704278	-36.942106	511.229905	916.709730	-42.063306	522.606255	704.678964	-55.225717	496.249390	706.299282	-164.810551	407.126925	643.085695	-22.694025	354.540238	573.187366	-41.709904	274.668671	539.069268	-45.192688	374.683919	554.176692	-72.836870	171.655057	474.917289	-50.010110	201.641925	476.659269	-146.321065	120.554418	530.263251	-100.993393	209.831292	246.265993	-100.364259	150.632345	319.052967	-34.167330	389.286201	1016.136797	-407.577901	459.870465	965.033047	-413.003864	488.481882	987.240077	-406.361444	495.031003	883.628190	-417.373671	558.139052	767.003525	-401.865590	568.660113	738.964536	-294.780747	372.004785	391.448300	-391.254517	403.868273	404.577124	-307.377451	298.205150	384.739145	-353.104349	484.635962	277.837283	-414.154929	503.853303	650.090540	-422.046858	486.214059	568.914318	-406.755939	429.663319	500.197641	-401.687618	509.413365	561.105119	-372.447815	571.535012	288.235139	-346.468543	-133.528280	945.674645	-223.018309	26.707026	84.221118	-426.472359	18.520978	80.557778	-28.173458	
753	3.7650	817.702687	1416.626640	-116.576984	860.653594	1329.445173	-433.671306	811.537385	1439.018052	-291.652868	580.722325	1242.903952	17.286559	710.528446	1201.725145	43.085487	785.481515	933.146698	-19.797554	647.851028	1126.322644	-533.220124	778.153112	938.235018	-418.628204	246.110914	1246.792538	-194.663660	378.932156	1217.097369	-370.738379	436.661416	1243.600340	-63.748652	405.191653	1179.841225	-334.366473	441.391680	1172.659451	-99.994197	291.576760	1284.675771	-151.859609	274.694251	1284.996285	-245.975434	352.061670	1128.214114	-13.631899	309.949149	1120.805377	-391.225000	428.305238	971.242183	-16.491802	482.423830	901.847168	-29.179142	494.176404	816.146761	-38.027034	512.469592	916.631490	-43.208321	528.207797	706.856071	-57.075512	502.101266	708.471415	-166.294652	411.472697	649.498760	-24.616240	356.941732	580.070637	-43.077683	277.510649	547.361338	-45.630087	377.211350	559.899936	-73.342064	173.203481	485.634020	-50.392498	203.243323	486.517838	-145.929711	121.906197	540.869822	-101.324008	212.607668	257.399286	-100.590336	153.135572	329.871548	-34.276839	387.689875	1009.520740	-407.405632	457.315898	957.110620	-412.827115	486.369953	978.839436	-406.643291	490.826621	875.006677	-416.527461	552.260087	759.056348	-401.678671	562.390888	730.647502	-294.738604	370.315650	381.480049	-391.588497	398.680628	390.890970	-312.961363	297.069030	375.048103	-352.865455	482.407226	266.749441	-414.096112	499.761149	640.995012	-421.323846	483.157145	558.459971	-403.807068	427.372454	490.344809	-401.518658	505.857739	552.426473	-371.521494	569.406761	276.226100	-346.419378	-133.574669	945.606833	-223.241544	26.719534	84.157116	-426.560708	18.412281	80.335613	-28.362736	
754	3.7700	817.721046	1418.204827	-114.711327	860.989963	1331.176282	-432.048110	811.119703	1439.990350	-289.801985	584.285725	1241.854018	17.624437	710.886156	1202.823422	45.528996	785.447317	933.256484	-20.016983	648.717073	1128.028236	-532.885451	778.420121	937.862490	-418.404597	245.690294	1244.008044	-195.346077	380.163637	1214.269304	-371.741520	435.769074	1241.892941	-64.345277	405.698509	1175.128016	-335.810696	440.420735	1171.057706	-101.599688	290.640180	1282.487298	-151.988481	273.815093	1283.470710	-248.522293	351.387664	1126.045729	-13.867198	310.189893	1115.316490	-391.236029	429.188521	969.535192	-16.282191	485.249557	901.870561	-29.641305	499.143341	816.367771	-39.294441	514.740227	917.517875	-44.297283	534.147356	709.724034	-58.716925	506.338433	711.306000	-168.256847	415.978995	655.849608	-26.590574	360.293708	587.038147	-43.963106	280.266720	555.855114	-46.402152	380.459563	566.104838	-73.493135	175.264727	496.315257	-50.705874	198.523782	495.499135	-138.992635	123.633790	551.284407	-101.443065	216.318285	268.498798	-100.707344	156.292657	340.650198	-34.344583	386.351323	1002.873779	-407.300207	454.887935	949.100193	-412.505612	484.353964	970.312076	-406.764348	486.967427	866.192164	-415.229476	546.533075	750.926886	-400.758358	555.420225	722.125875	-294.609980	367.785859	371.995157	-392.223874	401.093061	384.010909	-306.203447	295.334371	365.935806	-353.070821	479.634145	255.786531	-413.955579	495.074723	632.385383	-420.422430	479.331304	549.514961	-403.081071	424.286322	480.742154	-401.098206	501.855179	543.867702	-370.711965	566.569327	264.408921	-346.148261	-133.616017	945.575415	-223.421757	26.722614	84.106765	-426.599615	18.411013	80.321620	-28.399839	
